<?xml version="1.0" encoding="UTF-8"?>
<svg xmlns="http://www.w3.org/2000/svg" xmlns:xlink="http://www.w3.org/1999/xlink" width="48pt" height="48pt" viewBox="0 0 48 48" version="1.1">
<g id="surface8395839">
<path style=" stroke:none;fill-rule:nonzero;fill:rgb(100%,100%,100%);fill-opacity:1;" d="M 8 8 C 6.667969 8 5.492188 8.652344 4.769531 9.660156 C 4.28125 10.335938 4.496094 11.292969 5.203125 11.734375 L 22.765625 22.679688 C 23.523438 23.152344 24.476562 23.152344 25.234375 22.679688 L 42.722656 11.640625 C 43.457031 11.175781 43.640625 10.167969 43.097656 9.492188 C 42.367188 8.585938 41.253906 8 40 8 Z M 43.03125 16.171875 C 42.863281 16.171875 42.695312 16.21875 42.535156 16.320312 L 25.234375 27.230469 C 24.476562 27.699219 23.523438 27.699219 22.765625 27.226562 L 5.460938 16.445312 C 4.824219 16.050781 4 16.507812 4 17.257812 L 4 36 C 4 38.210938 5.789062 40 8 40 L 40 40 C 42.210938 40 44 38.210938 44 36 L 44 17.128906 C 44 16.566406 43.53125 16.167969 43.03125 16.171875 Z M 43.03125 16.171875 "/>
</g>
</svg>
